# xmcd
#
# Track frame offsets: 
#        150
#        13720
#        24906
#        37637
#        51601
#        64990
#        78497
#        90190
#        103844
#        118181
#        128407
#        156876
#
# Disc length: 2312 seconds
#
# Revision: 0
# Processed by: cddbd v1.5.2PL0 Copyright (c) Steve Scherf et al.
# Submitted via: ExactAudioCopyFreeDBPlugin 1.0
#
DISCID=8e09060c
DTITLE=Barley Wik - Triangle Mountain
DYEAR=2003
DGENRE=Country
TTITLE0=Prairie Gold
TTITLE1=Hartland
TTITLE2=10 Pound Trout
TTITLE3=Bell Tower
TTITLE4=Jekyl and Hyde
TTITLE5=Lady May
TTITLE6=Triangle Mountain
TTITLE7=Drunken Shame
TTITLE8=Stealin'
TTITLE9=Wolf
TTITLE10=Down In The Valley
TTITLE11=Bonus Track
EXTD=
EXTT0=
EXTT1=
EXTT2=
EXTT3=
EXTT4=
EXTT5=
EXTT6=
EXTT7=
EXTT8=
EXTT9=
EXTT10=
EXTT11=
PLAYORDER=
